<?xml version="1.0" standalone="no"?><!DOCTYPE svg PUBLIC "-//W3C//DTD SVG 1.1//EN" "http://www.w3.org/Graphics/SVG/1.1/DTD/svg11.dtd"><svg t="1769031355243" class="icon" viewBox="0 0 1403 1024" version="1.1" xmlns="http://www.w3.org/2000/svg" p-id="9455" xmlns:xlink="http://www.w3.org/1999/xlink" width="274.0234375" height="200"><path d="M1134.557 812.998c17.527-19.084 31.464-41.616 41.748-67.523 10.292-25.97 15.44-52.296 15.44-78.972 0-54.934-15.465-101.661-46.389-140.206-30.928-38.536-71.185-61.576-120.846-69.209l-17.206-1.117-14.898-2.332c-22.884-3.043-34.344-11.842-34.344-26.325 0-15.263 15.301-39.308 45.845-72.087 32.092-35.123 82.902-70.576 152.395-106.423 29.047-15.242 43.567-34.35 43.567-57.227 0-14.506-4.958-26.528-14.864-36.075-9.904-9.523-22.509-14.291-37.778-14.291-38.137 0-90.775 22.151-157.898 66.381-79.314 51.904-142.614 114.997-189.922 189.402-47.308 74.41-70.961 147.803-70.961 220.309 0 34.324 6.505 68.447 19.463 102.432 12.945 33.918 30.505 62.704 52.609 86.399 46.535 51.1 102.585 76.653 168.144 76.653 67.111 0 122.432-23.268 165.891-69.79v0zM588.050 812.998c17.53-19.084 31.398-41.796 41.685-68.106 10.296-26.367 15.405-52.46 15.405-78.39 0-54.934-15.22-101.849-45.636-140.777-30.412-38.918-70.357-61.778-119.82-68.639l-18.254-1.117-13.706-2.332c-22.797-3.043-34.235-11.842-34.235-26.325 0-15.263 14.861-39.308 44.539-72.088 31.215-33.574 81.826-69.067 151.835-106.422 28.96-15.242 43.4-34.35 43.4-57.227 0-14.506-4.913-26.527-14.825-36.075-9.907-9.524-22.485-14.291-37.722-14.291-38.036 0-90.578 22.151-157.603 66.381-79.179 51.902-142.174 114.997-189.006 189.402-46.794 74.408-70.232 147.803-70.232 220.309 0 34.324 6.47 68.447 19.43 102.432 12.958 33.918 30.442 62.704 52.516 86.399 46.415 51.1 101.985 76.653 166.685 76.653 67.754 0 122.938-23.268 165.541-69.79v0z" p-id="9456"></path></svg>